<?xml version='1.0' encoding='utf-8'?>
<svg xmlns:xlink="http://www.w3.org/1999/xlink" xmlns="http://www.w3.org/2000/svg" width="4e3" height="4e3" version="1.1" viewBox="0 0 1058.3 1058.3"> <defs> <linearGradient id="a"> <stop stop-color="#fff" offset="1"/> </linearGradient> <linearGradient id="g" x1="68.75" x2="319.67" y1="88.667" y2="88.667" gradientTransform="matrix(3.9929 0 0 4.0064 -214.9 -721.39)" gradientUnits="userSpaceOnUse" xlink:href="#a"/> <linearGradient id="f" x1="68.75" x2="427.6" y1="88.667" y2="88.667" gradientTransform="matrix(3.0979 0 0 4.0064 -128.88 -655.38)" gradientUnits="userSpaceOnUse" xlink:href="#a"/> <linearGradient id="d" x1="68.75" x2="288.31" y1="88.667" y2="88.667" gradientTransform="matrix(3.7175 0 0 4.0064 -146.06 -589.36)" gradientUnits="userSpaceOnUse" xlink:href="#a"/> <linearGradient id="e" x1="68.75" x2="257.71" y1="88.667" y2="90.199" gradientTransform="matrix(3.9929 0 0 4.0064 -1224.1 -857.71)" gradientUnits="userSpaceOnUse" xlink:href="#a"/> <linearGradient id="b" x1="68.75" x2="324.03" y1="88.667" y2="88.667" gradientTransform="matrix(2.1685 0 0 4.0064 -1066.1 -800.61)" gradientUnits="userSpaceOnUse" xlink:href="#a"/> <linearGradient id="c" x1="68.75" x2="290.7" y1="88.667" y2="88.667" gradientTransform="matrix(2.616 0 0 4.0064 -1074.2 -743.51)" gradientUnits="userSpaceOnUse" xlink:href="#a"/> <linearGradient id="h" x1="-.070897" x2="1058.3" y1="-763.42" y2="297.03" gradientUnits="userSpaceOnUse"> <stop stop-color="#006680" offset="0"/> <stop stop-color="#37c871" offset="1"/> </linearGradient> </defs> <g transform="translate(0 761.33)"> <rect x="310" y="-659.08" width="512.35" height="779.05" rx="34.157" ry="29.209" fill="#0cf" stroke="#1a1a1a" stroke-linecap="round" stroke-linejoin="round" stroke-miterlimit="4" stroke-width="3.1747"/> <rect x="593.24" y="73.598" width="349.71" height="60.36" rx="30.078" ry="30.18" fill="#09586d" stroke="#1a1a1a" stroke-linecap="round" stroke-linejoin="round" stroke-miterlimit="4" stroke-width="3.1747"/> <rect x="59.607" y="-395.37" width="241.24" height="29.214" rx="14.557" ry="14.607" fill="url(#g)"/> <rect x="84.096" y="-329.35" width="187.17" height="29.214" rx="14.557" ry="14.607" fill="url(#f)"/> <rect x="109.52" y="-263.34" width="224.6" height="29.214" rx="14.557" ry="14.607" fill="url(#d)"/> <rect x="364.26" y="-627.32" width="415.72" height="257.8" rx="22.164" ry="22.239" fill="#006680" stroke="#000" stroke-linecap="round" stroke-linejoin="round" stroke-miterlimit="4" stroke-width="3.1747"/> <ellipse cx="548.04" cy="-578.74" rx="29.878" ry="29.98" fill="#fd5" stroke="#1a1a1a" stroke-linecap="round" stroke-linejoin="round" stroke-miterlimit="4" stroke-width="3.1747"/> <path d="m627.99-576.46-62.413 108.47-40.295-70.03-86.166 149.75h297.16z" fill="#4fc4ad" stroke="#000" stroke-linecap="round" stroke-linejoin="round" stroke-miterlimit="4" stroke-width="3.1747"/> <ellipse cx="376.27" cy="-379.64" rx="42.908" ry="43.054" fill="#4fc4ad" stroke="#1a1a1a" stroke-linecap="round" stroke-linejoin="round" stroke-miterlimit="4" stroke-width="3.1747"/> <path transform="matrix(.97074 0 0 .97404 -.0020743 7.7101)" d="m375.24-375.98v-21.688-21.688l37.565 21.688-18.783 10.844z" fill="#006077" stroke="#1a1a1a" stroke-linecap="round" stroke-linejoin="round" stroke-miterlimit="4" stroke-width="3.2649"/> <rect transform="scale(-1,1)" x="-893.45" y="-531.69" width="185.09" height="29.214" rx="14.557" ry="14.607" fill="url(#e)"/> <rect transform="scale(-1,1)" x="-916.99" y="-474.58" width="131.02" height="29.214" rx="7.9061" ry="14.607" fill="url(#b)"/> <rect transform="scale(-1,1)" x="-894.32" y="-417.48" width="158.05" height="29.214" rx="9.5375" ry="14.607" fill="url(#c)"/> <g transform="matrix(3.9929 0 0 4.0064 24.826 -962.61)" fill="#006680" stroke="#000" stroke-linecap="round" stroke-linejoin="round" stroke-miterlimit="4"> <rect x="93.31" y="158.62" width="95.816" height="4.6615" rx="1.711" ry="2.3308" stroke-width=".79375"/> <rect x="93.31" y="158.62" width="95.816" height="4.6615" rx="2.3308" ry="2.3308" stroke-width=".79375"/> <rect x="93.31" y="169.2" width="95.816" height="4.6615" rx="2.3308" ry="2.3308" stroke-width=".79375"/> <rect x="93.183" y="179.66" width="41.904" height="4.9162" rx="2.4581" ry="2.4581" stroke-width=".53907"/> <rect x="93.31" y="190.37" width="95.816" height="4.6615" rx="2.3308" ry="2.3308" stroke-width=".79375"/> <rect x="93.31" y="200.95" width="95.816" height="4.6615" rx="2.3308" ry="2.3308" stroke-width=".79375"/> <rect x="93.272" y="211.5" width="77.142" height="4.7373" rx="2.3687" ry="2.3687" stroke-width=".71798"/> <rect x="93.31" y="222.12" width="95.816" height="4.6615" rx="2.3308" ry="2.3308" stroke-width=".79375"/> <rect x="93.31" y="232.7" width="95.816" height="4.6615" rx="2.3308" ry="2.3308" stroke-width=".79375"/> <rect x="93.31" y="243.28" width="95.816" height="4.6615" rx="2.3308" ry="2.3308" stroke-width=".79375"/> <rect x="93.204" y="253.76" width="49.154" height="4.874" rx="2.437" ry="2.437" stroke-width=".58132"/> </g> <path d="m812.62 78.651-40.128 68.486 29.316 0.23277v39.393c0 5.709 4.581 10.306 10.271 10.306s10.271-4.5965 10.271-10.306v-39.23l29.316 0.23117-19.523-34.555z" fill="#0cf" stroke="#1a1a1a" stroke-linecap="round" stroke-linejoin="round" stroke-miterlimit="4" stroke-width="3.1747"/> </g> </svg>